Coordinates
version=1
nRows=8
nColumns=40
inDegrees=yes

Units are S.I. units (second, meters, Newtons, ...)
Angles are in degrees.

endheader
time	pelvis_tilt	pelvis_list	pelvis_rotation	pelvis_tx	pelvis_ty	pelvis_tz	hip_flexion_r	hip_adduction_r	hip_rotation_r	knee_angle_r	knee_angle_r_beta	ankle_angle_r	subtalar_angle_r	mtp_angle_r	hip_flexion_l	hip_adduction_l	hip_rotation_l	knee_angle_l	knee_angle_l_beta	ankle_angle_l	subtalar_angle_l	mtp_angle_l	lumbar_extension	lumbar_bending	lumbar_rotation	arm_flex_r	arm_add_r	arm_rot_r	elbow_flex_r	pro_sup_r	wrist_flex_r	wrist_dev_r	arm_flex_l	arm_add_l	arm_rot_l	elbow_flex_l	pro_sup_l	wrist_flex_l	wrist_dev_l
     26.83742857	     -3.34752522	     -6.33065177	      2.45509383	      0.86845971	      0.93093692	      0.52502846	      3.96560374	      7.47758093	    -17.95984431	      9.96677426	      9.96677426	     11.40691520	      3.32663524	     -4.34356000	     34.12406123	    -12.71979346	     -0.18854904	     39.63811323	     39.63811323	      9.44259828	    -17.18916900	     13.49583290	     -8.55916421	      7.42138462	      5.32611108	     29.24323159	    -17.25284004	     -7.45439244	     77.47237285	     44.88251333	      0.00000000	      0.00000000	      0.19187613	     -7.55625723	      3.23656408	     23.96500679	     44.74369583	      0.00000000	      0.00000000
     26.84985714	     -3.39456893	     -6.02487153	      2.58409148	      0.86748691	      0.93055679	      0.52481001	      3.32411157	      7.21302852	    -18.03178918	      9.54173539	      9.54173539	     11.70844932	      3.65933921	     -4.41012595	     33.80559107	    -12.05364858	     -0.41370442	     35.56934161	     35.56934161	      9.33734519	    -16.30101173	     13.78621615	     -8.61626543	      7.04767982	      5.12030073	     31.32354565	    -17.04335692	     -7.55078821	     79.39928948	     44.83506134	      0.00000000	      0.00000000	     -1.05826066	     -7.54118612	      3.32502283	     23.64541675	     44.71045640	      0.00000000	      0.00000000
     26.86228571	     -3.40071772	     -6.12097342	      2.80957509	      0.86671458	      0.92979434	      0.52445343	      2.71953729	      7.29447991	    -18.76984687	      9.31125184	      9.31125184	     12.15475427	      4.85550132	     -4.47460659	     33.53812037	    -11.75981918	     -0.37964041	     31.70789058	     31.70789058	      8.35777719	    -15.34478019	     11.59203855	     -8.70050835	      7.23098922	      5.10653019	     32.72724851	    -17.21963023	     -7.53940515	     82.56044397	     44.77798188	      0.00000000	      0.00000000	     -2.77138725	     -7.77172641	      4.06850709	     24.82899438	     44.58314056	      0.00000000	      0.00000000
     26.87471429	     -3.61350360	     -6.20905338	      3.00203962	      0.86578006	      0.92870186	      0.52405147	      2.41295398	      7.41532088	    -18.85677192	      9.14409351	      9.14409351	     12.47773072	      4.88245271	     -4.57788252	     33.66320322	    -11.48336327	     -0.42097188	     28.47377278	     28.47377278	      8.36702789	    -13.80727505	     11.93879224	     -8.44579115	      7.34203292	      5.25686481	     34.54466369	    -17.43434273	     -7.76260167	     83.56994889	     44.76404201	      0.00000000	      0.00000000	     -3.76147085	     -7.67942775	      4.18952860	     24.53825225	     44.55004560	      0.00000000	      0.00000000
     26.88714286	     -3.78672535	     -6.44767085	      3.20249041	      0.86494688	      0.92746323	      0.52357870	      2.09393870	      7.68444491	    -18.97133302	      9.04789375	      9.04789375	     12.82407811	      4.95562590	     -4.70948821	     33.91741819	    -11.34278998	     -0.33274687	     25.83924850	     25.83924850	      8.36000321	    -12.43137525	     12.25043407	     -8.20331119	      7.60179962	      5.43447963	     36.25164101	    -17.80268038	     -8.02179047	     84.47887612	     44.75268655	      0.00000000	      0.00000000	     -4.84573614	     -7.66631028	      4.24996650	     24.24253463	     44.52280883	      0.00000000	      0.00000000
     26.89957143	     -3.74972302	     -6.25904052	      3.38710165	      0.86439346	      0.92691549	      0.52287631	      1.38913661	      7.51706267	    -19.11654087	      8.73974325	      8.73974325	     13.19894140	      5.28454667	     -4.74619988	     33.60894534	    -10.87652045	     -0.85677897	     23.19367390	     23.19367390	      8.22284251	    -10.79161531	     12.56706340	     -8.29458004	      7.37207948	      5.23632052	     37.81504617	    -17.43049168	     -8.00473271	     86.00721982	     44.71426586	      0.00000000	      0.00000000	     -5.89844178	     -7.65471026	      4.41600773	     24.15873486	     44.47848843	      0.00000000	      0.00000000
     26.91200000	     -3.76916868	     -6.32326357	      3.61177366	      0.86397541	      0.92598207	      0.52204105	      0.76266791	      7.58357626	    -19.57099284	      8.48390809	      8.48390809	     13.71305699	      6.08960892	     -4.49166677	     33.70896013	    -10.64421563	     -1.25323044	     21.51468739	     21.51468739	      8.05220650	     -9.44500760	     12.45307595	     -8.27571193	      7.45359740	      5.11698465	     39.16523416	    -17.47289100	     -8.01873665	     87.79953531	     44.69195750	      0.00000000	      0.00000000	     -7.45537787	     -7.88423063	      5.12315958	     25.24606969	     44.34904702	      0.00000000	      0.00000000
     26.92442857	     -3.85810714	     -6.31196436	      3.81643798	      0.86349825	      0.92504807	      0.52108167	      0.28097660	      7.57909760	    -19.60574584	      8.32682692	      8.32682692	     14.08660171	      6.10726839	     -4.47419671	     33.86537061	    -10.29447472	     -1.58156935	     20.26929350	     20.26929350	      7.76322154	     -8.71993647	     12.68528964	     -8.13862980	      7.43746186	      5.15184523	     40.51621266	    -17.58045587	     -8.17721165	     88.60057705	     44.68445877	      0.00000000	      0.00000000	     -8.34219533	     -7.84976762	      5.33604147	     25.15486524	     44.30753652	      0.00000000	      0.00000000
